<svg xmlns="http://www.w3.org/2000/svg" width="21" height="21"><path id="Forma_1" data-name="Forma 1" d="M924.118 1568.61h-1.071a6.341 6.341 0 00-6.332-6.34v-1.07a7.413 7.413 0 017.403 7.41zm-7.4-5.56v1.07a4.489 4.489 0 014.486 4.49h1.07a5.561 5.561 0 00-5.56-5.56zm-.218-5.05a10.5 10.5 0 000 20.99.645.645 0 100-1.29 9.2 9.2 0 119.2-9.2 5.96 5.96 0 01-2.743 5.11 4.033 4.033 0 01-1.9.49 2.966 2.966 0 001.022-.99.98.98 0 00.153-.23 10.373 10.373 0 00.357-1.61c.156-.69-2.993-2.02-3.266-1.17a8.077 8.077 0 01-.45 1.58.671.671 0 01-.884-.11c-.718-.61-1.52-1.51-2.223-2.22-.018-.02-.04-.04-.059-.06l-.06-.06c-.711-.7-1.61-1.5-2.221-2.22a.659.659 0 01-.108-.88 8.137 8.137 0 011.579-.45c.852-.28-.482-3.43-1.167-3.27a10.9 10.9 0 00-1.616.36 1.2 1.2 0 00-.231.15c-1.8 1.14-2.03 3.91-.275 5.97.669.79 1.367 1.55 2.085 2.3l.061.06.057.06v-.01a19.742 19.742 0 003.064 2.74c3.021 2.02 5.34 1.45 6.706.7a7.229 7.229 0 003.412-6.24A10.508 10.508 0 00916.5 1558z" transform="translate(-906 -1558)" fill="#fff" fill-rule="evenodd"/></svg>